<svg width="80" height="80" viewBox="0 0 80 80" fill="none" xmlns="http://www.w3.org/2000/svg">
<rect x="0.5" y="0.5" width="79" height="79" rx="39.5" stroke="#536274"/>
<path d="M40.5868 52.3073C40.3701 52.3131 40.1564 52.256 39.9714 52.1431C39.4264 51.8075 39.2604 51.0789 39.5883 50.5344C39.6159 50.4863 43.0414 44.7698 49.5804 41.1724H24.1601C23.5131 41.1724 22.9868 40.6462 22.9868 39.9991C22.9868 39.352 23.5131 38.8257 24.1601 38.8257H49.5804C43.0778 35.2488 39.6135 29.5071 39.5795 29.4496C39.2586 28.9017 39.4364 28.1725 39.9837 27.848C40.5387 27.5189 41.2697 27.7096 41.6012 28.2675C42.1344 29.1182 47.1352 36.7442 56.1047 38.8545C56.6415 38.9865 57.0135 39.4564 57.0135 39.9997C57.0135 40.5429 56.6439 41.014 56.1147 41.1425C47.107 43.2604 42.1233 50.8964 41.5847 51.7606C41.3735 52.0991 40.9828 52.2997 40.5868 52.3073Z" fill="#536274"/>
</svg>
