<svg width="79" height="20" viewBox="0 0 79 20" fill="none" xmlns="http://www.w3.org/2000/svg">
<g opacity="0.75">
<mask id="mask0_229_195" style="mask-type:luminance" maskUnits="userSpaceOnUse" x="0" y="0" width="79" height="20">
<path d="M79 0H0V20H79V0Z" fill="white"/>
</mask>
<g mask="url(#mask0_229_195)">
<path d="M30.1977 0.470703L23.3821 18.1949H27.0448L28.4593 14.4931H35.6956L37.1033 18.1949H40.7383L33.9479 0.470703H30.1977ZM29.7004 11.2402L32.085 5.00329L34.4562 11.2402H29.7004Z" fill="black"/>
<path d="M72.5176 5.51904C71.2359 5.51904 69.9832 5.89725 68.9177 6.60588C67.8522 7.31446 67.022 8.32167 66.5318 9.49999C66.0411 10.6784 65.9132 11.975 66.1627 13.2259C66.4128 14.4769 67.0299 15.626 67.9363 16.5278C68.8421 17.4297 69.9964 18.0439 71.2533 18.2928C72.5102 18.5416 73.8132 18.4139 74.9971 17.9258C76.1805 17.4377 77.1926 16.6111 77.9043 15.5506C78.6166 14.4901 78.9963 13.2433 78.9963 11.9679C78.9963 10.2575 78.3136 8.61725 77.099 7.40789C75.8839 6.19846 74.2357 5.51904 72.5176 5.51904ZM72.5176 15.1102C71.8931 15.1102 71.2829 14.9259 70.7642 14.5808C70.2449 14.2356 69.8404 13.7449 69.6014 13.1709C69.3624 12.5969 69.3 11.9652 69.4221 11.3558C69.5438 10.7465 69.8441 10.1867 70.2856 9.74736C70.7272 9.30799 71.2893 9.00878 71.9016 8.88757C72.5139 8.76636 73.1485 8.82857 73.7254 9.06636C74.3017 9.3041 74.7951 9.70678 75.142 10.2234C75.4883 10.74 75.6734 11.3474 75.6734 11.9687C75.6745 12.3814 75.593 12.7903 75.4349 13.1717C75.2763 13.5531 75.0442 13.8997 74.7507 14.1915C74.4577 14.4834 74.1093 14.7148 73.7259 14.8724C73.3431 15.03 72.9322 15.1108 72.5176 15.1102Z" fill="black"/>
<path d="M45.1028 13.6236L42.1444 5.74268H38.6508L43.4124 18.1947H46.8783L51.5549 5.74268H48.0613L45.1028 13.6236Z" fill="black"/>
<path d="M62.5433 2.43359H59.2188V5.74259H57.275V8.71575H59.2188V14.0163C59.2188 17.0171 60.8813 18.3069 63.2196 18.3069C64.0128 18.3183 64.7996 18.1654 65.5304 17.858V14.7734C65.1327 14.9193 64.7134 14.9966 64.2898 15.0021C63.2804 15.0021 62.5433 14.6093 62.5433 13.2634V8.71575H65.5304V5.74259H62.5433V2.43359Z" fill="black"/>
<path d="M54.2879 4.84552C55.6263 4.84552 56.7113 3.76563 56.7113 2.4335C56.7113 1.10138 55.6263 0.0214844 54.2879 0.0214844C52.9496 0.0214844 51.8645 1.10138 51.8645 2.4335C51.8645 3.76563 52.9496 4.84552 54.2879 4.84552Z" fill="black"/>
<path d="M55.9504 5.74268H52.6261V18.1947H55.9504V5.74268Z" fill="black"/>
<path d="M6.50217 19.9615C10.0813 19.9615 12.9829 17.0735 12.9829 13.511C12.9829 9.94849 10.0813 7.06055 6.50217 7.06055C2.92299 7.06055 0.0214844 9.94849 0.0214844 13.511C0.0214844 17.0735 2.92299 19.9615 6.50217 19.9615Z" fill="#04E061"/>
<path d="M17.7445 19.1476C19.9073 19.1476 21.6605 17.4025 21.6605 15.2498C21.6605 13.0971 19.9073 11.3521 17.7445 11.3521C15.5818 11.3521 13.8285 13.0971 13.8285 15.2498C13.8285 17.4025 15.5818 19.1476 17.7445 19.1476Z" fill="#FF4053"/>
<path d="M7.74166 6.22004C9.08006 6.22004 10.165 5.14014 10.165 3.80802C10.165 2.4759 9.08006 1.396 7.74166 1.396C6.40331 1.396 5.31836 2.4759 5.31836 3.80802C5.31836 5.14014 6.40331 6.22004 7.74166 6.22004Z" fill="#965EEB"/>
<path d="M16.2233 10.5104C19.1333 10.5104 21.4923 8.16239 21.4923 5.26597C21.4923 2.36951 19.1333 0.0214844 16.2233 0.0214844C13.3132 0.0214844 10.9542 2.36951 10.9542 5.26597C10.9542 8.16239 13.3132 10.5104 16.2233 10.5104Z" fill="#00AAFF"/>
</g>
</g>
</svg>
