<svg width="80" height="80" viewBox="0 0 80 80" fill="none" xmlns="http://www.w3.org/2000/svg">
<rect x="-0.5" y="0.5" width="79" height="79" rx="39.5" transform="matrix(-1 0 0 1 79 0)" stroke="#536274"/>
<path d="M39.4133 52.3073C39.63 52.3131 39.8437 52.256 40.0287 52.1431C40.5737 51.8075 40.7398 51.0789 40.4118 50.5344C40.3842 50.4863 36.9587 44.7698 30.4197 41.1724H55.84C56.4871 41.1724 57.0133 40.6462 57.0133 39.9991C57.0133 39.352 56.4871 38.8257 55.84 38.8257H30.4197C36.9223 35.2488 40.3866 29.5071 40.4206 29.4496C40.7415 28.9017 40.5638 28.1725 40.0164 27.848C39.4614 27.5189 38.7304 27.7096 38.399 28.2675C37.8657 29.1182 32.8649 36.7442 23.8954 38.8545C23.3586 38.9865 22.9866 39.4564 22.9866 39.9997C22.9866 40.5429 23.3562 41.014 23.8854 41.1425C32.8931 43.2604 37.8768 50.8964 38.4154 51.7606C38.6266 52.0991 39.0173 52.2997 39.4133 52.3073Z" fill="#536274"/>
</svg>
