<svg width="20" height="21" viewBox="0 0 20 21" fill="none" xmlns="http://www.w3.org/2000/svg">
<path d="M10 0.5C15.5228 0.5 20 4.97715 20 10.5C20 16.0228 15.5228 20.5 10 20.5C4.47715 20.5 0 16.0228 0 10.5C0 4.97715 4.47715 0.5 10 0.5ZM5.92578 6.42578C5.36351 6.4259 4.90746 6.8821 4.90723 7.44434V13.5557C4.90723 14.1181 5.36337 14.5741 5.92578 14.5742H14.0742C14.6367 14.5742 15.0928 14.1182 15.0928 13.5557V7.44434C15.0925 6.88205 14.6366 6.42582 14.0742 6.42578H5.92578ZM14.0742 9.99121L10.8408 12.2568C10.3362 12.6096 9.66483 12.6096 9.16016 12.2568L5.92578 9.99121V8.92188L9.66895 11.5439C9.86801 11.6821 10.132 11.6821 10.3311 11.5439L14.0742 8.92188V9.99121Z" fill="#DCBE7F"/>
</svg>
