<svg width="20" height="21" viewBox="0 0 20 21" fill="none" xmlns="http://www.w3.org/2000/svg">
<path d="M10 0.5C15.5228 0.5 20 4.97715 20 10.5C20 16.0228 15.5228 20.5 10 20.5C4.47715 20.5 0 16.0228 0 10.5C1.28852e-07 4.97715 4.47715 0.5 10 0.5ZM6.76562 4.56055C6.51301 4.355 6.18929 4.31962 5.83203 4.45801C5.45508 4.60434 4.74823 5.17304 4.44629 5.57031C4.17397 5.93001 4.06952 6.18548 4.05371 6.52148C4.03995 6.79791 4.06398 6.91295 4.20996 7.2666C5.35269 10.0416 7.05779 12.2575 9.40039 14.0166C10.6238 14.9355 11.8928 15.6349 13.209 16.1133C13.9766 16.3919 14.3104 16.4059 14.7031 16.1768C14.8689 16.0779 15.2799 15.657 15.5088 15.3506C15.8875 14.8409 16.0278 14.6057 16.0674 14.418C16.095 14.2896 16.0727 14.0662 16.0215 13.9238C15.9978 13.8547 15.9428 13.7478 15.9033 13.6865C15.6546 13.311 14.3185 12.2648 13.6514 11.9229C13.2706 11.7273 12.9885 11.6625 12.7793 11.7236C12.5543 11.7869 12.4356 11.8919 12.0586 12.3604C11.9067 12.548 11.7504 12.7233 11.709 12.751C11.6064 12.8221 11.4057 12.8798 11.2637 12.8799C10.9341 12.8779 10.3358 12.6645 9.87598 12.3838C9.51885 12.1664 9.06125 11.777 8.70996 11.3916C8.29551 10.939 8.01308 10.5395 7.79004 10.0889C7.50191 9.50973 7.42845 9.15543 7.54883 8.89648C7.57829 8.83165 7.61792 8.76328 7.63574 8.74121C7.65352 8.72148 7.83873 8.56837 8.04395 8.40234C8.44656 8.08217 8.51193 8.00941 8.58691 7.79004C8.68164 7.51134 8.65579 7.227 8.50977 6.94043C8.3973 6.72308 8.10375 6.24876 7.89062 5.94238C7.60854 5.53938 6.90629 4.67792 6.76562 4.56055Z" fill="#DCBE7F"/>
</svg>
